<svg xmlns="http://www.w3.org/2000/svg" width="446" height="376" viewBox="0 0 446 376" version="1.1">
	<path d="M 203.883 12.905 C 195.087 15.718, 188.005 20.298, 178.254 29.476 C 173.300 34.140, 167.956 38.446, 166.378 39.046 C 164.282 39.843, 161.251 39.816, 155.122 38.946 C 131.907 35.651, 112.139 45.048, 101.032 64.661 C 99.525 67.322, 97.072 73.189, 95.581 77.697 C 94.091 82.206, 91.955 87.059, 90.836 88.481 C 89.717 89.904, 84.160 93.290, 78.489 96.005 C 66.194 101.891, 57.825 109.099, 53.193 117.789 C 40.346 141.892, 47.373 174.247, 70.500 197.482 C 73.800 200.797, 86.968 211.382, 99.763 221.005 L 123.026 238.500 109.763 240.206 C 82.245 243.747, 58.691 252.007, 52.893 260.151 C 43.373 273.520, 71.006 312.627, 107 336.725 C 139.673 358.600, 192.473 371.567, 234.826 368.119 C 286.843 363.884, 329.852 345.035, 360.150 313.197 C 371.388 301.388, 377.265 293.391, 382.284 283.079 C 385.932 275.584, 386.462 273.633, 386.480 267.638 C 386.500 260.814, 386.477 260.755, 382.246 256.999 C 374.273 249.919, 356.971 244.427, 330.626 240.613 L 315.752 238.459 323.126 233.036 C 348.376 214.464, 358.281 206.638, 365.069 199.898 C 381.177 183.902, 389.615 166.515, 390.755 146.968 C 392.123 123.502, 379.167 103.062, 357.826 95.022 C 348.948 91.677, 346.404 89.644, 344.457 84.335 C 338.535 68.184, 336.492 63.820, 332.019 57.772 C 325.435 48.871, 316.357 42.773, 305.590 40.022 C 296.618 37.728, 291.858 37.538, 281.940 39.077 C 272.185 40.591, 269.431 39.438, 259.075 29.505 C 248.943 19.787, 244.119 16.602, 234.663 13.385 C 225.829 10.381, 212.427 10.171, 203.883 12.905 M 207.906 26.407 C 200.632 29.200, 197.527 31.385, 187.969 40.432 C 182.598 45.516, 176.470 50.536, 174.352 51.588 C 170.389 53.555, 167.275 53.715, 146.735 53.011 C 139.405 52.760, 136.959 53.103, 131.796 55.105 C 121.118 59.247, 113.053 68.904, 108.500 83 C 106.107 90.410, 102.497 97.450, 99.755 100.055 C 98.515 101.234, 92.546 104.583, 86.491 107.498 C 67.335 116.720, 60.503 126.626, 60.628 145 C 60.729 159.772, 65.853 171.838, 77.551 184.846 C 83.493 191.454, 104.645 208.137, 128.696 225.185 C 138.703 232.278, 147.164 238.941, 147.497 239.991 C 148.334 242.626, 145.678 247.370, 142.576 248.783 C 141.160 249.428, 131.114 251.336, 120.251 253.022 C 90.062 257.708, 74.419 261.542, 67.123 266.042 L 63.746 268.125 66.511 271.011 C 69.906 274.555, 80.626 280.257, 87.932 282.404 C 91.767 283.531, 97.498 284.002, 107.432 284.006 C 115.169 284.009, 123.127 284.463, 125.117 285.016 C 127.106 285.568, 132.928 288.549, 138.054 291.640 C 143.181 294.730, 148.979 297.941, 150.938 298.774 C 156.464 301.124, 167.132 300.627, 176.389 297.589 C 187.243 294.027, 194.506 294.131, 204.997 297.999 C 217.917 302.763, 221.621 302.840, 234.265 298.605 C 247.636 294.127, 255.231 293.837, 265.716 297.403 C 272.416 299.682, 277.308 300.454, 283.051 300.140 C 284.455 300.063, 289.630 297.625, 294.551 294.722 C 311.044 284.995, 312.165 284.676, 332.075 284.051 L 349.651 283.500 358.211 279.258 C 366.579 275.112, 373 270.275, 373 268.119 C 373 266.478, 366.394 263.455, 356.452 260.547 C 348.036 258.084, 331.956 255.078, 308.177 251.521 C 297.065 249.858, 292.703 248.181, 290.945 244.897 C 288.625 240.563, 290.509 238.414, 305.761 227.999 C 330.486 211.116, 345.067 199.927, 354.629 190.500 C 364.630 180.641, 369.179 174.166, 373.599 163.500 C 376.250 157.103, 376.500 155.467, 376.500 144.500 C 376.500 132.959, 376.379 132.271, 373.335 126.500 C 368.591 117.505, 363.216 112.960, 349.686 106.505 C 339.058 101.434, 337.574 100.397, 334.901 96.184 C 333.267 93.608, 330.796 87.912, 329.411 83.527 C 324.563 68.183, 317.260 59.189, 306.147 54.874 C 301.459 53.054, 298.887 52.734, 291 52.989 C 270.141 53.665, 267.714 53.508, 263.300 51.203 C 260.989 49.997, 255.139 45.162, 250.300 40.459 C 238.228 28.728, 232.326 25.732, 220.500 25.332 C 214.567 25.131, 210.275 25.497, 207.906 26.407 M 263.129 65.345 C 261.940 66.777, 259.888 74.369, 253.589 100.630 C 248.624 121.328, 248.391 122.991, 250.200 124.800 C 253.390 127.990, 255.887 124.564, 258.500 113.417 C 267.204 76.285, 268.714 65.872, 265.573 64.666 C 264.788 64.365, 263.688 64.670, 263.129 65.345 M 169.974 66.531 C 168.935 67.783, 169.086 69.472, 170.802 75.781 C 171.956 80.027, 175.183 92.466, 177.973 103.425 C 180.763 114.384, 183.541 123.946, 184.145 124.675 C 185.627 126.460, 188.466 126.349, 190.047 124.443 C 191.780 122.355, 189.633 112.874, 179.882 79.552 C 175.853 65.786, 173.337 62.479, 169.974 66.531 M 102.250 109.662 C 100.683 110.295, 100.640 113.452, 102.158 116.316 C 102.795 117.517, 106.514 122.325, 110.422 127 C 114.329 131.675, 120.971 139.775, 125.180 145 C 137.680 160.515, 137.868 160.657, 140.548 156.567 C 142.902 152.974, 143.051 153.197, 121.563 128 C 111.264 115.924, 104.821 108.965, 104.042 109.079 C 103.744 109.122, 102.938 109.385, 102.250 109.662 M 327.519 117.250 C 317.724 127.341, 296.886 151.328, 296.027 153.500 C 294.932 156.269, 296.609 159, 299.403 159 C 301.112 159, 303.842 156.525, 309.606 149.750 C 338.049 116.316, 340.309 113.100, 336.418 111.607 C 333.930 110.652, 333.913 110.663, 327.519 117.250 M 204.500 140.967 C 178.276 146.677, 156.538 167.409, 150.465 192.500 C 146.929 207.110, 148.928 225.950, 155.372 238.746 C 164.623 257.117, 178.100 268.912, 197.500 275.618 C 204.626 278.082, 206.920 278.385, 218.500 278.400 C 228.107 278.411, 233.066 277.949, 237.500 276.631 C 262.770 269.114, 280.654 250.797, 286.877 226.060 C 290.746 210.676, 289.057 194.269, 282.066 179.328 C 268.524 150.387, 235.726 134.167, 204.500 140.967 M 205.552 155.126 C 198.046 156.885, 187.106 162.969, 180.743 168.924 C 164.687 183.950, 158.852 205.412, 165.363 225.500 C 172.142 246.418, 188.070 260.094, 209.810 263.663 C 219.020 265.175, 220.450 265.176, 228.639 263.675 C 247.094 260.292, 261.186 249.877, 268.789 234 C 273.756 223.629, 275.455 215.406, 274.739 205.202 C 273.521 187.833, 262.678 170.342, 247.680 161.553 C 238.438 156.136, 230.468 154.035, 219.500 154.122 C 214 154.165, 207.723 154.617, 205.552 155.126 M 200.446 175.866 C 189.035 181.264, 181.290 193.230, 180.295 207 C 179.732 214.784, 181.198 217.669, 185.205 216.663 C 187.485 216.091, 187.785 215.402, 188.411 209.296 C 188.790 205.592, 189.938 200.668, 190.961 198.355 C 193.499 192.618, 200.447 185.314, 206.085 182.457 C 211.472 179.727, 212.438 178.071, 210.368 175.115 C 208.453 172.381, 207.689 172.439, 200.446 175.866 M 80 295.984 C 80 297.429, 97.700 313.640, 106.158 319.943 C 139.202 344.564, 187.064 357.153, 235.401 353.935 C 267.356 351.809, 300.132 340.770, 326.383 323.294 C 336.041 316.864, 360.947 293.919, 356.500 295.549 C 348.621 298.435, 343.869 299.115, 334.500 298.698 C 318.988 298.009, 314.084 299.028, 304.378 304.959 C 291.163 313.035, 287.606 314.336, 279 314.245 C 274.090 314.193, 269.428 313.433, 265.500 312.046 C 255.043 308.351, 249.736 308.318, 239.517 311.882 C 226.912 316.278, 216.750 316.261, 202.744 311.821 C 191.595 308.287, 189.930 308.356, 173 313.061 C 159.944 316.689, 149.475 314.660, 135.500 305.792 C 124.340 298.711, 124.085 298.648, 106 298.468 C 94.160 298.351, 88.158 297.865, 84.750 296.750 C 82.138 295.895, 80 295.551, 80 295.984" stroke="none" fill="#0042aa" fill-rule="evenodd"/>
</svg>